<svg xmlns="http://www.w3.org/2000/svg" viewBox="0 0 1600 900" role="img" aria-label="Coastal villa illustration">
  <defs>
    <linearGradient id="sky" x1="0" y1="0" x2="0" y2="1">
      <stop offset="0%" stop-color="#8ec5ff"/>
      <stop offset="100%" stop-color="#dff0ff"/>
    </linearGradient>
    <linearGradient id="sea" x1="0" y1="0" x2="1" y2="0">
      <stop offset="0%" stop-color="#1d4ed8"/>
      <stop offset="100%" stop-color="#60a5fa"/>
    </linearGradient>
  </defs>
  <rect width="1600" height="900" fill="url(#sky)"/>
  <rect y="560" width="1600" height="340" fill="url(#sea)"/>
  <circle cx="1310" cy="160" r="72" fill="#ffd166"/>
  <rect x="250" y="300" width="720" height="260" rx="26" fill="#f8fafc"/>
  <rect x="340" y="220" width="320" height="120" rx="18" fill="#eff6ff"/>
  <rect x="290" y="360" width="160" height="120" rx="14" fill="#bfdbfe"/>
  <rect x="490" y="360" width="160" height="120" rx="14" fill="#bfdbfe"/>
  <rect x="690" y="360" width="160" height="120" rx="14" fill="#bfdbfe"/>
  <rect x="1040" y="360" width="180" height="200" rx="22" fill="#dbeafe"/>
  <rect x="1120" y="420" width="70" height="140" rx="12" fill="#93c5fd"/>
  <path d="M210 610C370 520 560 500 740 540C900 576 1080 652 1390 610V900H210Z" fill="#86efac"/>
  <text x="120" y="120" fill="#0f172a" font-family="Segoe UI, Arial, sans-serif" font-size="52" font-weight="700">Nivora Demo Property</text>
  <text x="120" y="180" fill="#1e3a8a" font-family="Segoe UI, Arial, sans-serif" font-size="34">Coastal Villa</text>
</svg>